<svg width="672" height="708" viewBox="0 0 672 708" fill="none" xmlns="http://www.w3.org/2000/svg">
<g filter="url(#filter0_d)">
<rect x="87" y="104" width="326" height="498" rx="5" fill="#FAFAFA"/>
</g>
<rect x="123" y="518" width="111.248" height="44.499" fill="#FF9779"/>
<path d="M170.992 542.714H172.472V540.084H173.462C175.052 540.084 176.322 539.324 176.322 537.634C176.322 535.884 175.062 535.314 173.422 535.314H170.992V542.714ZM172.472 538.914V536.484H173.312C174.332 536.484 174.872 536.774 174.872 537.634C174.872 538.484 174.382 538.914 173.362 538.914H172.472ZM178.495 539.664L178.715 538.854C178.935 538.084 179.155 537.244 179.345 536.434H179.385C179.605 537.234 179.805 538.084 180.035 538.854L180.255 539.664H178.495ZM181.095 542.714H182.645L180.265 535.314H178.525L176.155 542.714H177.655L178.175 540.814H180.575L181.095 542.714ZM184.576 542.714H186.056V540.004L188.286 535.314H186.746L186.006 537.114C185.796 537.664 185.576 538.184 185.346 538.754H185.306C185.076 538.184 184.876 537.664 184.666 537.114L183.926 535.314H182.356L184.576 540.004V542.714Z" fill="white"/>
<path d="M135.082 195.546C138.659 195.546 141.558 192.646 141.558 189.069C141.558 185.493 138.659 182.593 135.082 182.593C131.505 182.593 128.605 185.493 128.605 189.069C128.605 192.646 131.505 195.546 135.082 195.546Z" fill="#063A5E"/>
<path d="M153.98 182.593C150.404 182.593 147.504 185.493 147.504 189.069C147.504 192.646 150.404 195.546 153.98 195.546C157.557 195.546 160.457 192.646 160.457 189.069C160.457 185.493 157.557 182.593 153.98 182.593Z" fill="#063A5E"/>
<path d="M165.017 175.985H131.248L130.587 172.152H158.343C159.159 172.154 159.894 171.656 160.193 170.896L166.802 154.243C167.203 153.224 166.703 152.073 165.684 151.671C165.451 151.579 165.202 151.532 164.951 151.533H127.151L125.565 142.413C125.402 141.449 124.56 140.748 123.582 140.761H115.983C114.888 140.761 114 141.649 114 142.744C114 143.839 114.888 144.726 115.983 144.726H121.93L127.613 178.297C127.776 179.262 128.618 179.963 129.596 179.95H165.017C166.112 179.95 167 179.062 167 177.967C167 176.872 166.112 175.985 165.017 175.985Z" fill="#063A5E"/>
<circle cx="168" cy="141" r="14" fill="#FF9779"/>
<path d="M167.932 148.252C170.47 148.252 172.612 146.83 172.612 144.382C172.612 142.636 171.46 141.52 169.948 141.106V141.016C171.37 140.458 172.18 139.414 172.18 137.974C172.18 135.688 170.434 134.428 167.86 134.428C166.294 134.428 165.016 135.058 163.864 136.066L165.214 137.686C166.006 136.966 166.78 136.516 167.734 136.498C168.868 136.516 169.516 137.128 169.516 138.172C169.516 139.36 168.724 140.206 166.276 140.206V142.114C169.174 142.114 169.948 142.924 169.948 144.238C169.948 145.426 169.03 146.092 167.68 146.092C166.474 146.092 165.502 145.498 164.71 144.724L163.468 146.398C164.404 147.46 165.826 148.252 167.932 148.252Z" fill="white"/>
<rect x="189" y="233" width="102" height="14" rx="7" fill="#C4C4C4"/>
<rect x="189" y="255" width="62" height="7" rx="3.5" fill="#C4C4C4"/>
<rect x="189" y="268" width="62" height="7" rx="3.5" fill="#C4C4C4"/>
<rect x="126" y="229" width="48" height="49" fill="#C5CDF8" fill-opacity="0.3"/>
<line x1="114" y1="293.5" x2="383" y2="293.5" stroke="#F0F4F6"/>
<rect x="189" y="314" width="153" height="14" rx="7" fill="#C4C4C4"/>
<rect x="189" y="336" width="62" height="7" rx="3.5" fill="#C4C4C4"/>
<rect x="189" y="349" width="62" height="7" rx="3.5" fill="#C4C4C4"/>
<rect x="126" y="310" width="48" height="49" fill="#C5CDF8" fill-opacity="0.3"/>
<line x1="114" y1="374.5" x2="383" y2="374.5" stroke="#F0F4F6"/>
<rect x="189" y="395" width="76" height="14" rx="7" fill="#C4C4C4"/>
<rect x="189" y="417" width="62" height="7" rx="3.5" fill="#C4C4C4"/>
<rect x="189" y="430" width="62" height="7" rx="3.5" fill="#C4C4C4"/>
<rect x="126" y="391" width="48" height="49" fill="#C5CDF8" fill-opacity="0.3"/>
<line x1="114" y1="455.5" x2="383" y2="455.5" stroke="#F0F4F6"/>
<g filter="url(#filter1_d)">
<rect x="225" y="425" width="334.644" height="79.0977" rx="4" fill="white"/>
</g>
<path d="M261.984 446.027C261.53 446.134 261.075 445.853 260.968 445.399C260.424 443.092 259.015 441.136 257 439.889C256.603 439.644 256.48 439.124 256.726 438.726C256.971 438.329 257.491 438.207 257.888 438.452C260.288 439.936 261.965 442.265 262.612 445.011C262.719 445.465 262.438 445.92 261.984 446.027Z" fill="#FF9779"/>
<path d="M245.536 449.904C245.083 450.011 244.627 449.73 244.52 449.276C243.873 446.53 244.334 443.697 245.817 441.298C246.063 440.9 246.583 440.778 246.98 441.024C247.377 441.269 247.5 441.789 247.254 442.186C246.008 444.201 245.621 446.582 246.165 448.888C246.272 449.342 245.99 449.797 245.536 449.904Z" fill="#FF9779"/>
<path d="M262.642 451.107C261.151 450.349 260.076 448.981 259.692 447.354L259.152 445.061C258.469 442.168 255.755 440.279 252.876 440.534L252.667 439.646C252.56 439.191 252.105 438.91 251.651 439.017C251.197 439.124 250.915 439.579 251.022 440.034L251.232 440.922C248.541 441.98 246.957 444.881 247.639 447.775L248.18 450.068C248.563 451.695 248.212 453.399 247.211 454.751C246.956 455.101 246.866 455.542 246.965 455.963C247.152 456.756 247.95 457.25 248.744 457.063L262.312 453.864C263.105 453.677 263.599 452.88 263.411 452.086C263.312 451.665 263.035 451.31 262.642 451.107Z" fill="#FF9779"/>
<path d="M256.304 458.753C257.793 458.402 258.788 457.046 258.743 455.574L252.701 456.998C253.319 458.336 254.815 459.104 256.304 458.753Z" fill="#FF9779"/>
<path d="M278.272 453.967H284.516V452.595H279.896V449.263H283.676V447.891H279.896V445.021H284.362V443.663H278.272V453.967ZM287.027 453.967H288.623V448.507C289.267 447.807 289.841 447.457 290.359 447.457C291.241 447.457 291.647 447.989 291.647 449.319V453.967H293.257V448.507C293.901 447.807 294.461 447.457 294.993 447.457C295.861 447.457 296.281 447.989 296.281 449.319V453.967H297.891V449.123C297.891 447.163 297.135 446.071 295.525 446.071C294.559 446.071 293.775 446.673 293.019 447.485C292.683 446.603 292.039 446.071 290.891 446.071C289.939 446.071 289.169 446.645 288.511 447.345H288.469L288.343 446.267H287.027V453.967ZM302.54 454.149C303.464 454.149 304.29 453.687 304.99 453.085H305.032L305.172 453.967H306.488V449.333C306.488 447.289 305.606 446.071 303.688 446.071C302.456 446.071 301.378 446.575 300.58 447.079L301.182 448.171C301.84 447.751 302.596 447.387 303.408 447.387C304.542 447.387 304.864 448.171 304.878 449.067C301.672 449.417 300.272 450.271 300.272 451.923C300.272 453.281 301.21 454.149 302.54 454.149ZM303.03 452.875C302.344 452.875 301.826 452.567 301.826 451.811C301.826 450.943 302.596 450.369 304.878 450.089V451.979C304.248 452.553 303.702 452.875 303.03 452.875ZM309.273 453.967H310.869V446.267H309.273V453.967ZM310.071 444.825C310.659 444.825 311.107 444.433 311.107 443.873C311.107 443.299 310.659 442.921 310.071 442.921C309.483 442.921 309.049 443.299 309.049 443.873C309.049 444.433 309.483 444.825 310.071 444.825ZM315.388 454.149C315.78 454.149 316.06 454.093 316.256 454.023L316.046 452.805C315.906 452.833 315.85 452.833 315.78 452.833C315.584 452.833 315.388 452.679 315.388 452.245V442.809H313.792V452.161C313.792 453.407 314.226 454.149 315.388 454.149Z" fill="#1A1A1A"/>
<rect x="244.773" y="468.904" width="212.955" height="15.2111" rx="7.60555" fill="#9BB0BF"/>
<g filter="url(#filter2_d)">
<rect x="342" y="308" width="292" height="93" rx="4" fill="white"/>
</g>
<path d="M394.213 333.536H400.191V332.164H395.837V323.232H394.213V333.536ZM402.506 333.536H404.13V323.232H402.506V333.536ZM407.327 333.536H408.867V328.678C408.867 327.558 408.741 326.368 408.657 325.304H408.727L409.805 327.46L413.221 333.536H414.887V323.232H413.347V328.034C413.347 329.154 413.473 330.4 413.557 331.464H413.487L412.409 329.28L408.993 323.232H407.327V333.536ZM418.108 333.536H424.352V332.164H419.732V328.832H423.512V327.46H419.732V324.59H424.198V323.232H418.108V333.536Z" fill="#1A1A1A"/>
<path d="M379.81 325.851C379.38 325.953 378.949 325.686 378.848 325.256C378.333 323.072 376.999 321.22 375.09 320.039C374.714 319.806 374.598 319.314 374.831 318.938C375.064 318.562 375.556 318.446 375.932 318.679C378.204 320.084 379.792 322.289 380.405 324.889C380.506 325.319 380.24 325.75 379.81 325.851Z" fill="#FF9779"/>
<path d="M364.234 329.523C363.804 329.624 363.373 329.357 363.272 328.927C362.659 326.328 363.095 323.645 364.5 321.373C364.733 320.997 365.225 320.881 365.601 321.113C365.978 321.346 366.094 321.838 365.861 322.214C364.681 324.122 364.315 326.376 364.829 328.56C364.931 328.99 364.664 329.421 364.234 329.523Z" fill="#FF9779"/>
<path d="M380.433 330.661C379.021 329.944 378.003 328.648 377.639 327.107L377.128 324.936C376.482 322.196 373.912 320.408 371.185 320.65L370.987 319.808C370.886 319.378 370.455 319.112 370.025 319.213C369.595 319.315 369.328 319.745 369.43 320.176L369.628 321.017C367.08 322.018 365.58 324.766 366.226 327.506L366.738 329.677C367.101 331.218 366.769 332.832 365.821 334.112C365.579 334.443 365.494 334.861 365.588 335.26C365.765 336.011 366.521 336.478 367.272 336.301L380.12 333.272C380.872 333.095 381.339 332.34 381.162 331.588C381.068 331.19 380.805 330.854 380.433 330.661Z" fill="#FF9779"/>
<path d="M374.431 337.902C375.841 337.569 376.784 336.286 376.741 334.891L371.02 336.24C371.604 337.507 373.021 338.234 374.431 337.902Z" fill="#FF9779"/>
<path d="M374.588 352.924H370.94V352.132H374.588V352.924ZM374.588 354.472H370.94V353.68H374.588V354.472ZM375.656 351.316H369.92V355.3H375.656V351.316ZM369.224 357.088L369.068 356.08L367.916 356.416V354.304H369.188V353.272H367.916V350.956H366.896V353.272H365.504V354.304H366.896V356.716C366.332 356.872 365.804 357.016 365.384 357.124L365.636 358.204L366.896 357.82V360.604C366.896 360.772 366.836 360.82 366.692 360.82C366.56 360.82 366.116 360.82 365.636 360.808C365.78 361.096 365.912 361.576 365.936 361.84C366.692 361.84 367.172 361.804 367.496 361.624C367.808 361.456 367.916 361.156 367.916 360.604V357.496L369.224 357.088ZM373.28 359.08H375.68V358.192H373.28V356.944H376.28V356.032H369.356V356.944H372.236V360.448C371.66 360.172 371.204 359.656 370.892 358.792C370.988 358.396 371.06 357.976 371.12 357.532L370.112 357.412C369.92 359.104 369.404 360.448 368.36 361.276C368.612 361.42 369.032 361.768 369.2 361.948C369.788 361.42 370.232 360.736 370.556 359.896C371.336 361.48 372.584 361.78 374.252 361.78H376.316C376.352 361.504 376.496 361.036 376.628 360.796C376.184 360.808 374.624 360.808 374.276 360.808C373.928 360.808 373.604 360.796 373.28 360.748V359.08ZM387.448 353.104H384.628V352.264H387.448V353.104ZM387.448 354.76H384.628V353.896H387.448V354.76ZM388.456 351.4H383.668V355.624H388.456V351.4ZM379.588 359.164H381.688V358.36H379.588V359.164ZM382 356.788C381.976 356.8 381.94 356.8 381.868 356.8H381.58C381.472 356.8 381.46 356.776 381.46 356.62V354.508H382V356.788ZM379.264 360.22V357.436C379.384 357.532 379.528 357.664 379.588 357.736C380.26 357.1 380.416 356.176 380.416 355.468V354.508H380.884V356.632C380.884 357.256 381.04 357.4 381.508 357.4H381.976H382V360.22H379.264ZM379.84 354.508V355.456C379.84 356.008 379.756 356.68 379.264 357.232V354.508H379.84ZM380.38 352.324H380.92V353.572H380.38V352.324ZM381.7 352.324H383.188V351.388H378.148V352.324H379.624V353.572H378.424V361.9H379.264V361.108H382V361.732H382.876V353.572H381.7V352.324ZM386.68 360.748V359.56H388.528V358.684H386.68V357.688H388.72V356.8H386.68V355.852H385.648V356.8H384.724C384.82 356.524 384.916 356.26 384.988 355.972L384.04 355.756C383.812 356.656 383.416 357.544 382.888 358.144C383.116 358.276 383.536 358.516 383.704 358.672C383.932 358.408 384.148 358.06 384.328 357.688H385.648V358.684H383.812V359.56H385.648V360.748H383.26V361.672H389.008V360.748H386.68ZM399.924 352.936C399.768 353.32 399.588 353.716 399.444 353.992L400.392 354.196C400.68 353.68 401.04 352.852 401.34 352.144L400.56 351.952L400.392 351.988H396.252C396.372 351.724 396.468 351.472 396.564 351.196L395.544 350.944C395.172 352.036 394.512 353.08 393.72 353.764C393.96 353.908 394.368 354.268 394.548 354.46C394.968 354.052 395.376 353.524 395.748 352.936H399.924ZM398.856 354.652C399.408 355.384 400.02 356.38 400.284 357.028L401.22 356.536C400.956 355.888 400.344 354.94 399.756 354.232L398.856 354.652ZM397.512 359.44C397.188 358.852 396.456 358.012 395.832 357.436L394.968 357.904C395.592 358.528 396.3 359.404 396.576 359.98L397.512 359.44ZM395.52 354.256C395.208 355.048 394.656 355.828 394.032 356.356C394.272 356.512 394.668 356.836 394.86 357.016C395.496 356.404 396.144 355.468 396.54 354.532L395.52 354.256ZM398.34 353.32H397.272V357.76H398.34V353.32ZM392.16 357.808H393.228V352.864C393.6 352.336 393.96 351.784 394.236 351.232L393.252 350.896C392.592 352.192 391.524 353.452 390.432 354.268C390.66 354.472 390.996 354.94 391.14 355.156C391.476 354.88 391.824 354.544 392.16 354.184V357.808ZM391.62 361.48C392.028 360.736 392.436 359.62 392.736 358.804L391.752 358.396C391.476 359.2 391.032 360.28 390.576 360.976L391.62 361.48ZM395.136 360.712C394.392 360.712 394.248 360.652 394.248 360.304V358.372H393.132V360.328C393.132 361.42 393.528 361.732 395.064 361.732H397.68C398.928 361.732 399.264 361.348 399.408 359.764C399.108 359.716 398.64 359.548 398.388 359.356C398.316 360.544 398.208 360.712 397.596 360.712H395.136ZM399.072 358.552C399.6 359.416 400.128 360.568 400.296 361.3L401.364 360.88C401.16 360.124 400.608 359.02 400.056 358.168L399.072 358.552ZM405.992 353.62H404.48V352.288H405.992V353.62ZM405.992 355.828H404.48V354.472H405.992V355.828ZM405.992 358.036H404.48V356.668H405.992V358.036ZM407 351.376H403.508V358.936H407V351.376ZM404.096 359.116C403.868 359.98 403.424 360.82 402.884 361.384C403.112 361.516 403.532 361.792 403.724 361.96C404.264 361.324 404.78 360.34 405.08 359.356L404.096 359.116ZM405.548 359.464C405.92 360.064 406.352 360.892 406.508 361.408L407.384 360.988C407.192 360.472 406.772 359.692 406.388 359.104L405.548 359.464ZM411.056 359.188V358.42H412.328V359.188H411.056ZM408.86 358.42H410.072V359.188H408.86V358.42ZM410.072 356.98V357.688H408.86V356.98H410.072ZM412.328 356.98V357.688H411.056V356.98H412.328ZM409.808 354.112H411.344V354.748H409.808V354.112ZM409.808 352.732H411.344V353.32H409.808V352.732ZM413.996 359.188H413.36V356.152H411.056V355.576H413.972V354.748H412.34V354.112H413.528V353.32H412.34V352.732H413.72V351.904H412.34V350.932H411.344V351.904H409.808V350.932H408.824V351.904H407.444V352.732H408.824V353.32H407.744V354.112H408.824V354.748H407.204V355.576H410.072V356.152H407.864V359.188H407.156V360.004H407.864V361.96H408.86V360.004H412.328V360.856C412.328 361 412.292 361.048 412.124 361.048C411.968 361.06 411.416 361.06 410.864 361.036C410.996 361.288 411.128 361.684 411.164 361.936C411.992 361.936 412.544 361.936 412.904 361.78C413.252 361.624 413.36 361.36 413.36 360.868V360.004H413.996V359.188ZM419.92 356.212L418.66 356.572V354.364H419.776V353.308H418.66V350.932H417.628V353.308H416.86C416.944 352.804 417.004 352.288 417.064 351.772L416.116 351.616C415.996 353.044 415.78 354.556 415.36 355.528C415.588 355.648 415.996 355.888 416.176 356.032C416.356 355.576 416.524 355 416.668 354.364H417.628V356.884C416.812 357.112 416.056 357.316 415.456 357.472L415.744 358.54L417.628 357.964V361.936H418.66V357.64C419.128 357.496 419.596 357.352 420.064 357.196L419.92 356.212ZM421.84 352.864C422.02 352.312 422.2 351.724 422.332 351.124L421.324 350.932C420.928 352.708 420.244 354.412 419.272 355.468C419.512 355.612 419.956 355.948 420.136 356.104C420.628 355.516 421.06 354.76 421.432 353.896H422.284C421.732 355.744 420.748 357.64 419.512 358.6C419.812 358.756 420.172 359.032 420.376 359.236C421.648 358.108 422.692 355.912 423.22 353.896H424.024C423.424 356.8 422.164 359.668 420.232 361.048C420.544 361.216 420.94 361.504 421.156 361.708C423.1 360.148 424.384 356.992 424.996 353.896H425.332C425.116 358.456 424.864 360.16 424.516 360.556C424.396 360.724 424.276 360.772 424.084 360.772C423.856 360.772 423.412 360.772 422.908 360.724C423.088 361.036 423.208 361.492 423.22 361.816C423.748 361.84 424.252 361.852 424.576 361.792C424.96 361.732 425.2 361.624 425.452 361.264C425.92 360.676 426.148 358.78 426.412 353.392C426.424 353.248 426.424 352.864 426.424 352.864H421.84ZM430.452 357.52V356.5H432.888V357.52H430.452ZM430.452 354.652H432.888V355.648H430.452V354.652ZM436.524 354.652V355.648H434.04V354.652H436.524ZM436.524 357.52H434.04V356.5H436.524V357.52ZM438.9 359.26H434.04V358.432H437.64V353.728H434.04V352.984H438.504V351.964H434.04V350.932H432.888V351.964H428.496V352.984H432.888V353.728H429.372V358.432H432.888V359.26H428.148V360.268H432.888V361.972H434.04V360.268H438.9V359.26ZM449.756 352.936H448.724V351.952H449.756V352.936ZM447.848 352.936H446.828V351.952H447.848V352.936ZM445.952 352.936H444.968V351.952H445.952V352.936ZM450.752 351.28H444.02V353.608H450.752V351.28ZM451.352 354.076H443.408V354.88H451.352V354.076ZM449.288 356.848H445.412V356.02H449.288V356.848ZM447.428 358.288C448.448 358.912 449.804 359.788 450.476 360.328L451.028 359.632C450.68 359.38 450.14 359.032 449.588 358.684C450.008 358.456 450.464 358.18 450.848 357.892L450.236 357.508H450.38V355.36H444.38V357.508H446.372C445.508 357.976 444.368 358.384 443.336 358.576C443.528 358.768 443.792 359.104 443.936 359.356C444.392 359.236 444.86 359.068 445.328 358.888V359.272C445.328 359.704 445.088 359.86 444.908 359.932C445.028 360.1 445.184 360.472 445.232 360.7C445.448 360.544 445.796 360.436 448.088 359.812C448.04 359.632 447.992 359.284 447.98 359.044L446.276 359.476V358.42C446.792 358.156 447.272 357.832 447.68 357.508H449.984C449.672 357.748 449.264 358.024 448.892 358.252C448.556 358.048 448.244 357.856 447.944 357.688L447.428 358.288ZM442.832 352.912C442.688 352.396 442.4 351.592 442.172 350.968L441.2 351.268C441.392 351.892 441.68 352.744 441.824 353.272L442.832 352.912ZM443.108 356.392L442.928 356.44H442.292C442.604 355.612 442.952 354.628 443.228 353.776H440.588V354.784H441.836C441.524 355.72 441.164 356.692 440.84 357.4H442.376C442.196 358.204 441.956 359.056 441.644 359.704C441.248 359.932 440.804 360.412 440.384 360.976L441.14 362.008C441.464 361.276 441.884 360.496 442.148 360.496C442.412 360.496 442.844 360.916 443.324 361.192C444.2 361.696 445.232 361.828 446.804 361.828C448.196 361.828 450.404 361.756 451.328 361.696C451.352 361.396 451.532 360.844 451.664 360.544C450.332 360.712 448.304 360.82 446.852 360.82C445.436 360.82 444.344 360.748 443.516 360.244C443.132 360.016 442.88 359.812 442.664 359.692C443.072 358.792 443.384 357.64 443.6 356.572L443.108 356.392ZM461.284 356.692H456.604V355.66H461.284V356.692ZM456.568 358.672C456.592 358.384 456.604 358.096 456.604 357.832V357.628H461.284V358.672H456.568ZM463.756 353.476V352.432H457.78C457.948 352.024 458.08 351.604 458.212 351.196L457.072 350.932C456.94 351.424 456.772 351.928 456.568 352.432H453.28V353.476H456.1C455.356 354.916 454.336 356.248 453.016 357.136C453.244 357.352 453.58 357.748 453.748 358C454.396 357.544 454.972 357.004 455.488 356.392V357.808C455.488 358.924 455.392 360.232 454.384 361.156C454.6 361.312 455.044 361.78 455.188 362.032C455.896 361.384 456.268 360.508 456.448 359.608H461.284V360.64C461.284 360.82 461.224 360.88 461.02 360.88C460.816 360.892 460.096 360.892 459.388 360.856C459.532 361.156 459.7 361.636 459.736 361.936C460.732 361.936 461.404 361.936 461.824 361.756C462.256 361.588 462.376 361.252 462.376 360.652V354.676H456.7C456.928 354.292 457.132 353.884 457.336 353.476H463.756ZM466.512 352.072V353.212H475.512V352.072H466.512ZM467.292 355.924V357.064H474.576V355.924H467.292ZM465.828 360.016V361.144H476.148V360.016H465.828ZM487.484 355.264H483.884V354.28H487.484V355.264ZM487.484 357.04H483.884V356.044H487.484V357.04ZM487.484 358.828H483.884V357.82H487.484V358.828ZM482.852 353.44V359.668H488.576V353.44H485.912C486.02 353.116 486.152 352.756 486.26 352.408H489.032V351.46H482.3V352.408H484.988C484.928 352.744 484.856 353.104 484.784 353.44H482.852ZM482.348 357.244L480.74 357.772V353.308H482.216V352.276H478.148V353.308H479.624V358.132C478.964 358.348 478.364 358.528 477.884 358.672L478.328 359.74C479.516 359.332 481.064 358.768 482.54 358.228L482.348 357.244ZM484.124 359.764C483.524 360.256 482.312 360.856 481.304 361.18C481.52 361.372 481.844 361.732 482 361.948C483.044 361.612 484.28 360.988 485.048 360.388L484.124 359.764ZM486.02 360.412C486.8 360.856 487.856 361.528 488.348 361.96L489.236 361.288C488.684 360.844 487.628 360.208 486.848 359.812L486.02 360.412ZM497.296 358.456V359.644H494.668V358.456H497.296ZM498.208 360.448V357.652H493.732V360.976H494.668V360.448H498.208ZM492.448 355.612H494.332C494.188 356.392 493.756 356.8 492.448 357.04V355.612ZM501.268 352.156H496.78C496.66 351.772 496.468 351.268 496.3 350.86L495.232 351.124C495.352 351.436 495.496 351.82 495.604 352.156H490.768V353.104H494.08L493.276 353.38C493.492 353.776 493.792 354.352 493.936 354.712H491.392V361.924H492.448V357.052C492.652 357.232 492.868 357.568 492.952 357.808C494.596 357.448 495.136 356.788 495.316 355.612H496.456V356.176C496.456 356.956 496.612 357.328 497.44 357.328H498.556C498.82 357.328 499.132 357.316 499.288 357.268C499.252 357.016 499.24 356.752 499.216 356.488C499.048 356.536 498.712 356.548 498.532 356.548H497.68C497.464 356.548 497.44 356.452 497.44 356.188V355.612H499.624V360.808C499.624 360.988 499.552 361.048 499.348 361.048C499.18 361.06 498.496 361.06 497.8 361.036C497.944 361.276 498.088 361.624 498.136 361.888C499.132 361.888 499.756 361.876 500.14 361.732C500.524 361.588 500.656 361.36 500.656 360.808V354.712H498.004C498.292 354.304 498.58 353.824 498.844 353.368L497.728 353.128C497.548 353.584 497.224 354.244 496.948 354.712H494.08L494.956 354.376C494.8 354.052 494.5 353.512 494.26 353.104H501.268V352.156ZM510.756 354.46H506.256V352.504H510.756V354.46ZM511.896 351.436H505.188V355.528H511.896V351.436ZM506.736 357.76V360.256H504.552V357.76H506.736ZM503.496 361.948H504.552V361.324H506.736V361.864H507.84V356.692H503.496V361.948ZM510.084 360.256V357.76H512.46V360.256H510.084ZM509.016 356.692V361.948H510.084V361.324H512.46V361.888H513.576V356.692H509.016ZM518.384 352.696L517.964 353.056C518.384 353.428 518.924 353.956 519.164 354.28L519.884 353.632C519.656 353.368 519.272 353.008 518.912 352.696H520.892V351.748H517.988C518.108 351.532 518.204 351.34 518.3 351.124L517.304 350.836C516.92 351.772 516.236 352.708 515.492 353.308C515.732 353.488 516.092 353.884 516.26 354.076C516.656 353.716 517.064 353.224 517.412 352.696H518.384ZM523.952 357.424H522.8V358.156H515.72V359.068H518.408L517.676 359.608C518.336 360.16 519.188 360.952 519.584 361.42L520.424 360.76C519.992 360.304 519.14 359.572 518.504 359.068H522.8V360.82C522.8 360.988 522.74 361.036 522.536 361.048C522.356 361.06 521.612 361.072 520.904 361.036C521.024 361.3 521.156 361.66 521.204 361.948C522.212 361.948 522.908 361.948 523.364 361.816C523.808 361.696 523.952 361.432 523.952 360.868V359.068H526.268V358.156H523.952V357.424ZM523.04 351.748C523.124 351.532 523.196 351.316 523.268 351.088L522.248 350.848C521.948 351.844 521.408 352.84 520.76 353.476C520.868 353.548 521.024 353.656 521.168 353.776H520.412V354.448H516.14V355.396H520.412V356.296H516.752V357.172H525.176V356.296H521.564V355.396H525.872V354.448H521.564V354.1L521.6 354.136C521.948 353.752 522.296 353.26 522.584 352.708H523.64L523.136 353.116C523.544 353.5 524.036 354.04 524.252 354.4L525.02 353.752C524.816 353.464 524.42 353.044 524.06 352.708H526.484V351.748H523.04ZM535.42 353.488H536.524V352.648H538.792V351.676H536.524V350.92H535.42V351.676H533.716V352.648H535.42V353.488ZM530.536 353.476H531.628V352.648H533.236V351.676H531.628V350.92H530.536V351.676H528.244V352.648H530.536V353.476ZM536.608 359.176H531.628V358.384H536.608V359.176ZM531.628 360.724V359.92H536.608V360.724H531.628ZM538.816 356.704V355.744H536.44C537.22 355.24 537.94 354.7 538.552 354.1L537.712 353.56C536.896 354.4 535.816 355.12 534.604 355.744H533.284V354.844H536.08V353.92H533.284V353.128H532.18V353.92H529.228V354.844H532.18V355.744H528.232V356.704H532.432C531.004 357.244 529.48 357.676 527.944 357.976C528.112 358.192 528.376 358.648 528.472 358.888C529.156 358.72 529.852 358.54 530.536 358.336V361.924H531.628V361.6H536.608V361.924H537.748V357.508H532.912C533.536 357.256 534.136 357.004 534.724 356.704H538.816ZM544.644 357.976C544.512 357.808 544.152 357.388 543.804 356.956C544.128 356.68 544.524 356.284 544.896 355.9L544.236 355.288C544.032 355.624 543.66 356.092 543.36 356.44C543.252 356.32 543.156 356.212 543.072 356.128V356.056C543.6 355.228 544.056 354.304 544.38 353.404L543.828 352.948L543.648 353.008H542.664L543.444 352.552C543.24 352.12 542.844 351.46 542.496 350.956L541.644 351.4C541.956 351.892 542.34 352.564 542.532 353.008H540.552V354.016H543.132C542.484 355.444 541.392 356.872 540.36 357.7C540.504 357.916 540.756 358.468 540.84 358.768C541.236 358.42 541.644 358 542.04 357.508V361.948H543.072V357.34C543.444 357.868 543.864 358.48 544.056 358.828L544.644 357.976ZM547.572 353.668V355.564H546.072V353.668H547.572ZM549.708 356.548C549.396 357.448 548.94 358.252 548.376 358.912C547.8 358.24 547.332 357.436 547.008 356.548H549.708ZM550.32 355.516L550.116 355.564H548.604V353.668H550.128C550.02 354.172 549.876 354.664 549.744 355.036L550.692 355.252C550.932 354.616 551.232 353.632 551.448 352.768L550.668 352.588L550.5 352.624H548.604V350.944H547.572V352.624H545.052V355.78C545.052 357.424 544.92 359.632 543.648 361.156C543.864 361.3 544.284 361.66 544.452 361.876C545.652 360.448 545.976 358.336 546.06 356.62C546.444 357.784 546.972 358.804 547.656 359.656C546.948 360.28 546.132 360.736 545.256 361.024C545.46 361.252 545.736 361.66 545.844 361.936C546.78 361.564 547.632 361.06 548.364 360.4C549.084 361.06 549.924 361.552 550.908 361.9C551.064 361.6 551.364 361.168 551.604 360.952C550.644 360.676 549.816 360.232 549.12 359.656C549.984 358.648 550.632 357.388 550.992 355.792L550.32 355.516ZM559.136 353.188V354.244H557.888V353.188H559.136ZM556.916 353.188V355.096H560.156V353.188H561.068V353.884C561.068 354.82 561.26 355.204 562.208 355.204H563.156C563.42 355.204 563.696 355.192 563.852 355.144C563.816 354.904 563.792 354.532 563.768 354.28C563.612 354.316 563.324 354.34 563.144 354.34H562.292C562.088 354.34 562.064 354.232 562.064 353.908V353.188H563.792V352.312H562.064V351.064H561.068V352.312H560.156V351.088H559.136V352.312H557.888V351.088H556.916V352.312H556.028V351.088H555.02V352.312H553.244V353.188H554.972C554.84 353.776 554.456 354.4 553.316 354.772C553.544 354.964 553.832 355.3 553.964 355.528C555.368 354.94 555.86 354.052 555.992 353.188H556.916ZM562.52 357.616H559.004V356.752H557.9V357.616H554.612V361.252H555.692V358.504H557.9V361.936H559.004V358.504H561.416V360.148C561.416 360.292 561.368 360.328 561.188 360.34C561.032 360.34 560.396 360.34 559.784 360.316C559.928 360.58 560.084 361 560.132 361.276C561.02 361.276 561.608 361.276 562.004 361.12C562.4 360.976 562.52 360.676 562.52 360.172V357.616ZM553.448 358.036H554.48V356.536H562.568V358.036H563.648V355.624H553.448V358.036ZM572.212 357.604H569.656V355.156H572.212V357.604ZM568.6 354.172V358.576H573.328V354.172H568.6ZM567.148 360.256V352.528H574.816V360.256H567.148ZM565.996 351.388V361.948H567.148V361.3H574.816V361.948H576.016V351.388H565.996ZM579.576 352.96H587.436V354.508H588.576V351.952H584.244C584.1 351.604 583.896 351.172 583.68 350.836L582.516 351.172C582.648 351.412 582.78 351.676 582.888 351.952H578.496V354.508H579.576V352.96ZM586.86 355.204C586.236 355.804 585.276 356.548 584.412 357.124C584.148 356.524 583.776 355.948 583.26 355.456C583.536 355.264 583.8 355.084 584.04 354.868H586.884V353.908H580.092V354.868H582.528C581.424 355.564 579.888 356.092 578.46 356.404C578.652 356.62 578.94 357.076 579.048 357.292C580.176 356.98 581.376 356.524 582.432 355.948C582.612 356.14 582.768 356.332 582.9 356.524C581.856 357.256 579.876 358.072 578.4 358.408C578.604 358.648 578.832 359.032 578.964 359.284C580.356 358.84 582.156 358.036 583.344 357.256C583.452 357.484 583.524 357.7 583.596 357.928C582.408 358.972 580.104 360.04 578.208 360.484C578.424 360.724 578.676 361.132 578.796 361.408C580.452 360.916 582.42 359.968 583.788 358.96C583.836 359.776 583.656 360.424 583.368 360.664C583.164 360.892 582.948 360.928 582.648 360.928C582.384 360.928 582 360.904 581.58 360.868C581.76 361.18 581.856 361.612 581.88 361.912C582.24 361.936 582.6 361.948 582.876 361.936C583.44 361.936 583.788 361.828 584.172 361.456C584.82 360.952 585.108 359.524 584.724 358.036C584.88 357.94 585.048 357.844 585.204 357.748C585.828 359.416 586.872 360.76 588.348 361.444C588.504 361.168 588.84 360.736 589.08 360.544C587.652 359.968 586.596 358.684 586.08 357.184C586.668 356.776 587.256 356.356 587.772 355.936L586.86 355.204ZM595.004 358.888C596.372 358.444 597.212 357.412 597.212 356.08C597.212 355.168 596.816 354.58 596.06 354.58C595.508 354.58 595.04 354.928 595.04 355.54C595.04 356.164 595.508 356.5 596.048 356.5C596.108 356.5 596.168 356.5 596.216 356.488C596.156 357.208 595.616 357.76 594.692 358.108L595.004 358.888ZM366.188 374.62C366.488 373.744 366.704 372.352 366.764 371.368L365.948 371.248C365.864 372.208 365.648 373.528 365.348 374.332L366.188 374.62ZM369.668 373.072C369.536 372.496 369.128 371.56 368.756 370.864L368.096 371.14V368.932H367.004V379.936H368.096V371.44C368.42 372.124 368.732 372.94 368.852 373.468L369.668 373.072ZM373.016 376.036C373.844 377.272 374.936 378.928 375.44 379.9L376.46 379.324C375.896 378.364 374.78 376.756 373.952 375.58L373.016 376.036ZM372.98 371.824H374.504V374.32H372.92C372.968 373.864 372.98 373.42 372.98 372.988V371.824ZM375.596 374.32V370.792H372.98V368.932H371.852V370.792H369.644V371.824H371.852V372.988C371.852 373.408 371.84 373.864 371.804 374.32H369.032V375.376H371.648C371.348 376.78 370.568 378.148 368.588 379.132C368.852 379.336 369.224 379.768 369.38 379.996C371.552 378.772 372.44 377.08 372.776 375.376H376.496V374.32H375.596ZM388.9 374.944V373.828H384.088V371.812H388.024V370.696H384.088V368.92H382.912V370.696H379.084V371.812H382.912V373.828H378.148V374.944H381.748C381.016 376.216 380.092 377.416 379.768 377.74C379.42 378.148 379.156 378.412 378.88 378.484C379.024 378.784 379.204 379.348 379.264 379.588C379.78 379.384 380.512 379.348 386.776 378.844C387.004 379.216 387.196 379.564 387.328 379.864L388.432 379.288C387.892 378.22 386.752 376.648 385.684 375.472L384.676 375.928C385.168 376.492 385.672 377.176 386.14 377.848L380.728 378.196C381.556 377.272 382.432 376.132 383.164 374.944H388.9ZM398.988 375.748H394.188V375.064H398.988V375.748ZM394.188 378.652V377.92H398.988V378.652H394.188ZM394.188 376.492H398.988V377.176H394.188V376.492ZM401.256 373.504V372.616H395.148C395.256 372.388 395.364 372.136 395.46 371.896H400.584V371.02H395.76C395.844 370.768 395.928 370.528 396 370.276C397.668 370.18 399.264 370.024 400.5 369.808L399.828 369.004C397.884 369.364 394.344 369.532 391.44 369.544C391.548 369.772 391.644 370.144 391.656 370.396C392.652 370.396 393.708 370.372 394.764 370.336C394.704 370.564 394.644 370.792 394.56 371.02H391.596V371.896H394.26C394.152 372.136 394.044 372.388 393.924 372.616H390.744V373.504H393.444C392.712 374.716 391.716 375.772 390.42 376.504C390.636 376.708 390.96 377.116 391.104 377.38C391.872 376.936 392.544 376.384 393.12 375.772V379.984H394.188V379.528H398.988V379.984H400.104V374.2H394.32C394.464 373.972 394.584 373.744 394.716 373.504H401.256ZM411.488 375.748H406.688V375.064H411.488V375.748ZM406.688 378.652V377.92H411.488V378.652H406.688ZM406.688 376.492H411.488V377.176H406.688V376.492ZM413.756 373.504V372.616H407.648C407.756 372.388 407.864 372.136 407.96 371.896H413.084V371.02H408.26C408.344 370.768 408.428 370.528 408.5 370.276C410.168 370.18 411.764 370.024 413 369.808L412.328 369.004C410.384 369.364 406.844 369.532 403.94 369.544C404.048 369.772 404.144 370.144 404.156 370.396C405.152 370.396 406.208 370.372 407.264 370.336C407.204 370.564 407.144 370.792 407.06 371.02H404.096V371.896H406.76C406.652 372.136 406.544 372.388 406.424 372.616H403.244V373.504H405.944C405.212 374.716 404.216 375.772 402.92 376.504C403.136 376.708 403.46 377.116 403.604 377.38C404.372 376.936 405.044 376.384 405.62 375.772V379.984H406.688V379.528H411.488V379.984H412.604V374.2H406.82C406.964 373.972 407.084 373.744 407.216 373.504H413.756ZM418.228 371.056V375.784H416.956V371.056H418.228ZM419.26 370.024H415.936V377.92H416.956V376.816H419.26V370.024ZM422.608 370.708V374.308H421.264V370.708H422.608ZM425.02 374.308H423.616V370.708H425.02V374.308ZM422.14 378.712C421.396 378.712 421.264 378.58 421.264 377.872V375.316H425.02V376.048H426.112V369.676H420.172V377.872C420.172 379.384 420.616 379.732 422.056 379.732H424.78C426.088 379.732 426.424 379.18 426.592 377.524C426.28 377.464 425.836 377.272 425.572 377.104C425.476 378.4 425.356 378.712 424.708 378.712H422.14ZM433.008 376.024H433.992L434.352 371.608L434.388 370.024H432.624L432.66 371.608L433.008 376.024ZM433.5 379.084C434.1 379.084 434.592 378.664 434.592 378.04C434.592 377.416 434.1 376.984 433.5 376.984C432.9 376.984 432.408 377.416 432.408 378.04C432.408 378.664 432.9 379.084 433.5 379.084Z" fill="#737373"/>
<defs>
<filter id="filter0_d" x="72" y="93" width="356" height="528" filterUnits="userSpaceOnUse" color-interpolation-filters="sRGB">
<feFlood flood-opacity="0" result="BackgroundImageFix"/>
<feColorMatrix in="SourceAlpha" type="matrix" values="0 0 0 0 0 0 0 0 0 0 0 0 0 0 0 0 0 0 127 0"/>
<feOffset dy="4"/>
<feGaussianBlur stdDeviation="7.5"/>
<feColorMatrix type="matrix" values="0 0 0 0 0.45098 0 0 0 0 0.45098 0 0 0 0 0.45098 0 0 0 0.25 0"/>
<feBlend mode="normal" in2="BackgroundImageFix" result="effect1_dropShadow"/>
<feBlend mode="normal" in="SourceGraphic" in2="effect1_dropShadow" result="shape"/>
</filter>
<filter id="filter1_d" x="220" y="422" width="344.644" height="89.0977" filterUnits="userSpaceOnUse" color-interpolation-filters="sRGB">
<feFlood flood-opacity="0" result="BackgroundImageFix"/>
<feColorMatrix in="SourceAlpha" type="matrix" values="0 0 0 0 0 0 0 0 0 0 0 0 0 0 0 0 0 0 127 0"/>
<feOffset dy="2"/>
<feGaussianBlur stdDeviation="2.5"/>
<feColorMatrix type="matrix" values="0 0 0 0 0.45098 0 0 0 0 0.45098 0 0 0 0 0.45098 0 0 0 0.25 0"/>
<feBlend mode="normal" in2="BackgroundImageFix" result="effect1_dropShadow"/>
<feBlend mode="normal" in="SourceGraphic" in2="effect1_dropShadow" result="shape"/>
</filter>
<filter id="filter2_d" x="337" y="305" width="302" height="103" filterUnits="userSpaceOnUse" color-interpolation-filters="sRGB">
<feFlood flood-opacity="0" result="BackgroundImageFix"/>
<feColorMatrix in="SourceAlpha" type="matrix" values="0 0 0 0 0 0 0 0 0 0 0 0 0 0 0 0 0 0 127 0"/>
<feOffset dy="2"/>
<feGaussianBlur stdDeviation="2.5"/>
<feColorMatrix type="matrix" values="0 0 0 0 0.45098 0 0 0 0 0.45098 0 0 0 0 0.45098 0 0 0 0.25 0"/>
<feBlend mode="normal" in2="BackgroundImageFix" result="effect1_dropShadow"/>
<feBlend mode="normal" in="SourceGraphic" in2="effect1_dropShadow" result="shape"/>
</filter>
</defs>
</svg>
